<?xml version="1.0" ?><svg viewBox="0 0 64 64" xmlns="http://www.w3.org/2000/svg"><g data-name="11-line" id="_11-line"><rect height="62" rx="6" style="fill:#30c718" width="62" x="1" y="1"/><path d="M57,1H7A6,6,0,0,0,1,7V17A22,22,0,0,0,23,39H41A22,22,0,0,0,63,17V7A6,6,0,0,0,57,1Z" style="fill:#64d631"/><path d="M57,1H7A6,6,0,0,0,1,7v4A6,6,0,0,1,7,5H57a6,6,0,0,1,6,6V7A6,6,0,0,0,57,1Z" style="fill:#82eb54"/><path d="M57,59H7a6,6,0,0,1-6-6v4a6,6,0,0,0,6,6H57a6,6,0,0,0,6-6V53A6,6,0,0,1,57,59Z" style="fill:#00aa01"/><path d="M55,30c0-11.046-10.3-20-23-20S9,18.954,9,30c0,10.459,9.235,19.038,21,19.92V54a2,2,0,0,0,2,2h.587a1.966,1.966,0,0,0,.8-.167C36.2,54.591,55,44,55,31Z" style="fill:#fff"/><path d="M33.388,55.833a1.966,1.966,0,0,1-.8.167H32a2,2,0,0,1-2-2v3a2,2,0,0,0,2,2h.587a1.966,1.966,0,0,0,.8-.167C36.2,57.591,55,47,55,34V33c0-.38-.015-.756-.039-1.13C54.154,44.469,36.135,54.619,33.388,55.833Z" style="fill:#00aa01"/><path d="M30,49.92c-11.226-.842-20.128-8.7-20.922-18.5C9.031,31.942,9,32.468,9,33c0,10.459,9.235,19.038,21,19.92v-3Z" style="fill:#00aa01"/><path d="M18,25H16V36a1,1,0,0,0,1,1h6V35H18Z" style="fill:#30c718"/><rect height="12" style="fill:#30c718" width="2" x="25" y="25"/><path d="M47,27V25H41a1,1,0,0,0-1,1V36a1,1,0,0,0,1,1h6V35H42V32h5V30H42V27Z" style="fill:#30c718"/><path d="M36,32.39l-4.143-6.905A1,1,0,0,0,30,26V37h2V29.61l4.143,6.905A1,1,0,0,0,37,37a1.016,1.016,0,0,0,.267-.036A1,1,0,0,0,38,36V25H36Z" style="fill:#30c718"/><rect height="1" style="fill:#00aa01" width="2" x="16" y="25"/><rect height="1" style="fill:#00aa01" width="2" x="25" y="25"/><path d="M41,25a1,1,0,0,0-1,1v1a1,1,0,0,1,1-1h6V25Z" style="fill:#00aa01"/><path d="M30.733,26.036a1,1,0,0,1,1.124.449L36,33.39v-1l-4.143-6.905A1,1,0,0,0,30,26v1A1,1,0,0,1,30.733,26.036Z" style="fill:#00aa01"/><rect height="1" style="fill:#00aa01" width="2" x="36" y="25"/></g></svg>